<?xml version="1.0" encoding="utf-8"?>
<!-- Generator: Adobe Illustrator 16.0.4, SVG Export Plug-In . SVG Version: 6.00 Build 0)  -->
<!DOCTYPE svg PUBLIC "-//W3C//DTD SVG 1.1//EN" "http://www.w3.org/Graphics/SVG/1.1/DTD/svg11.dtd">
<svg version="1.1" id="Layer_1" xmlns="http://www.w3.org/2000/svg" xmlns:xlink="http://www.w3.org/1999/xlink" x="0px" y="0px"
	 width="166px" height="32.1px" viewBox="0 0 166 32.1" style="enable-background:new 0 0 166 32.1;" xml:space="preserve">
<style type="text/css">
<![CDATA[
	.st0{fill:#1892DF;}
	.st1{fill:#212020;}
]]>
</style>
<g>
	<rect x="47.6" y="11.2" class="st1" width="3.5" height="20.5"/>
	<path class="st1" d="M60.7,16.1c-2.3,0-4.9,0.5-7,1.3v14.4h3.4V19.7c0.9-0.3,2.1-0.4,3.3-0.4c1.9,0,3.3,0.8,3.3,3v9.5h3.4v-9.9
		C67.1,17.6,64.6,16.1,60.7,16.1z"/>
	<rect x="80.7" y="9.1" class="st1" width="3.4" height="22.6"/>
	<path class="st1" d="M105.5,24.1c0-3.2,2.1-5,4.9-5c1.4,0,2.8,0.4,4,1.4v-3.3c-1.4-0.8-2.7-1.1-4.4-1.1c-4.5,0-8.1,3.1-8.1,8
		c0,4.9,3.4,8,8.1,8c1.6,0,3.1-0.3,4.5-1.1v-3.2c-1.2,0.9-2.6,1.4-4.1,1.4C107.6,29.1,105.5,27.2,105.5,24.1z"/>
	<path class="st1" d="M122.1,26.6v-7.3h4.9v-2.9h-4.9v-3.7h-3.4v3.7h-2.3v2.9h2.3v8.1c0,3.5,2.1,4.7,4.6,4.7c1.5,0,2.7-0.3,3.7-0.8
		v-3.1c-0.9,0.5-1.8,0.9-2.8,0.9C122.9,29.1,122.1,28.5,122.1,26.6z"/>
	<path class="st1" d="M130.9,9.2c-1.1,0-2.1,0.9-2.1,2.1c0,1.2,1,2.2,2.1,2.2c1.1,0,2.1-1,2.1-2.2C133,10.1,132,9.2,130.9,9.2z"/>
	<rect x="129.2" y="16.5" class="st1" width="3.4" height="15.3"/>
	<path class="st1" d="M142.5,16.1c-4.6,0-7.9,3.3-7.9,8c0,4.7,3.3,8,7.9,8c4.6,0,7.9-3.3,7.9-8C150.5,19.4,147.1,16.1,142.5,16.1z
		 M142.5,29.2c-2.6,0-4.4-2-4.4-5c0-3.1,1.9-5.1,4.4-5.1c2.6,0,4.5,2,4.5,5.1C147,27.2,145.2,29.2,142.5,29.2z"/>
	<path class="st1" d="M159.6,16.1c-2.2,0-4.9,0.5-7,1.3v14.4h3.4V19.7c0.9-0.3,2.1-0.4,3.3-0.4c1.9,0,3.3,0.8,3.3,3v9.5h3.4v-9.9
		C166,17.6,163.5,16.1,159.6,16.1z"/>
	<path class="st1" d="M100.2,24.9v-1.7c0-4.2-2.1-7.1-6.6-7.1c-4.2,0-7.4,3.3-7.4,8.1c0,4.8,3.3,7.9,8,7.9c2,0,4-0.5,5.4-1.4v-3
		c-1.5,1-3,1.5-5.2,1.5c-2.4,0-4.7-1.5-4.9-4.2v-0.1H100.2z M93.5,19c2,0,3.1,1.1,3.4,3h-7.1C90.4,20.1,91.7,19,93.5,19z"/>
	<path class="st1" d="M78.1,16.5h-3.5v-2c0-1.8,0.8-2.6,2.1-2.6c0.6,0,1,0.1,1.4,0.2V9.1c-0.5-0.2-1.1-0.3-1.8-0.3
		c-3,0-5.1,1.8-5.1,5.5v2.1h-2.4v2.9h2.4v12.5h3.4V19.3h3.5V16.5z"/>
	<g>
		<path class="st0" d="M0,0v24.9c1.7-2.4,4.7-5.9,7.2-5.4c3.4,0.6,5.7,3.5,7.3,5.2c3.8,3.8,14.3-10,17.2-23.9V0H0z"/>
		<path class="st0" d="M9.1,28c-4.6-6.5-8.1,0.5-9.1,3.1v0.6h12.8C11.1,30.7,9.9,29.2,9.1,28z"/>
		<path class="st0" d="M21.2,31.8h10.6v-9.3C27.6,27.5,24.1,30.4,21.2,31.8z"/>
	</g>
</g>
<g>
</g>
<g>
</g>
<g>
</g>
<g>
</g>
<g>
</g>
<g>
</g>
<g>
</g>
<g>
</g>
<g>
</g>
<g>
</g>
<g>
</g>
<g>
</g>
<g>
</g>
<g>
</g>
<g>
</g>
</svg>
